
<svg id="SvgjsSvg1217" width="1052.5" height="442" xmlns="http://www.w3.org/2000/svg" viewBox="0 0 1053 445" version="1.1" xmlns:xlink="http://www.w3.org/1999/xlink" xmlns:svgjs="http://svgjs.com/svgjs"><defs id="SvgjsDefs1218"></defs><rect id="SvgjsRect1219" width="1052.5" height="442" fill="#ffffff"></rect><g id="SvgjsG1220" transform="translate(147.5,146.75)"><path id="SvgjsPath1221" d="M 0 4Q 0 0 4 0L 144 0Q 148 0 148 4L 148 31Q 148 35 144 35L 4 35Q 0 35 0 31Z" stroke="#004c99" stroke-width="1" fill-opacity="1" fill="#ffffff"></path><g id="SvgjsG1222"><text id="SvgjsText1223" font-family="微软雅黑" text-anchor="middle" font-size="16px" width="96" fill="#003366" font-weight="400" align="middle" anchor="middle" family="微软雅黑" size="16px" weight="400" font-style="" y="5.1" transform="rotate(0)"><tspan id="SvgjsTspan1224" dy="20" x="74"><tspan id="SvgjsTspan1225" style="text-decoration:;">计费项目</tspan></tspan></text></g></g><g id="SvgjsG1226" transform="translate(147.5,215.75)"><path id="SvgjsPath1227" d="M 0 4Q 0 0 4 0L 144 0Q 148 0 148 4L 148 31Q 148 35 144 35L 4 35Q 0 35 0 31Z" stroke="#004c99" stroke-width="1" fill-opacity="1" fill="#ffffff"></path><g id="SvgjsG1228"><text id="SvgjsText1229" font-family="微软雅黑" text-anchor="middle" font-size="16px" width="96" fill="#003366" font-weight="400" align="middle" anchor="middle" family="微软雅黑" size="16px" weight="400" font-style="" y="5.1" transform="rotate(0)"><tspan id="SvgjsTspan1230" dy="20" x="74"><tspan id="SvgjsTspan1231" style="text-decoration:;">货主（项目）</tspan></tspan></text></g></g><g id="SvgjsG1232" transform="translate(129,28)"><path id="SvgjsPath1233" d="M 0 0L 169 0L 169 47L 0 47Z" stroke="none" fill="none"></path><g id="SvgjsG1234"><text id="SvgjsText1235" font-family="微软雅黑" text-anchor="middle" font-size="16px" width="64" fill="#99004d" font-weight="700" align="middle" anchor="middle" family="微软雅黑" size="16px" weight="700" font-style="" y="11.1" transform="rotate(0)"><tspan id="SvgjsTspan1236" dy="20" x="84.5"><tspan id="SvgjsTspan1237" style="text-decoration:;">项目设置</tspan></tspan></text></g></g><g id="SvgjsG1238"><path id="SvgjsPath1239" d="M121 85L220.5 85L220.5 85L320 85" stroke-dasharray="8,5" stroke="#323232" stroke-width="2" fill="none"></path></g><g id="SvgjsG1240" transform="translate(447.5,146.75)"><path id="SvgjsPath1241" d="M 0 4Q 0 0 4 0L 144 0Q 148 0 148 4L 148 31Q 148 35 144 35L 4 35Q 0 35 0 31Z" stroke="#004c99" stroke-width="1" fill-opacity="1" fill="#ffffff"></path><g id="SvgjsG1242"><text id="SvgjsText1243" font-family="微软雅黑" text-anchor="middle" font-size="16px" width="64" fill="#003366" font-weight="400" align="middle" anchor="middle" family="微软雅黑" size="16px" weight="400" font-style="" y="5.1" transform="rotate(0)"><tspan id="SvgjsTspan1244" dy="20" x="74"><tspan id="SvgjsTspan1245" style="text-decoration:;">入库单</tspan></tspan></text></g></g><g id="SvgjsG1246" transform="translate(447.5,215.75)"><path id="SvgjsPath1247" d="M 0 4Q 0 0 4 0L 144 0Q 148 0 148 4L 148 31Q 148 35 144 35L 4 35Q 0 35 0 31Z" stroke="#004c99" stroke-width="1" fill-opacity="1" fill="#ffffff"></path><g id="SvgjsG1248"><text id="SvgjsText1249" font-family="微软雅黑" text-anchor="middle" font-size="16px" width="64" fill="#003366" font-weight="400" align="middle" anchor="middle" family="微软雅黑" size="16px" weight="400" font-style="" y="5.1" transform="rotate(0)"><tspan id="SvgjsTspan1250" dy="20" x="74"><tspan id="SvgjsTspan1251" style="text-decoration:;">出库单</tspan></tspan></text></g></g><g id="SvgjsG1401" transform="translate(447.5,355.75)"><path id="SvgjsPath1402" d="M 0 4Q 0 0 4 0L 144 0Q 148 0 148 4L 148 31Q 148 35 144 35L 4 35Q 0 35 0 31Z" stroke="#004c99" stroke-width="1" fill-opacity="1" fill="#ffffff"></path><g id="SvgjsG1403"><text id="SvgjsText1404" font-family="微软雅黑" text-anchor="middle" font-size="16px" width="64" fill="#003366" font-weight="400" align="middle" anchor="middle" family="微软雅黑" size="16px" weight="400" font-style="" y="5.1" transform="rotate(0)"><tspan id="SvgjsTspan1405" dy="20" x="74"><tspan id="SvgjsTspan1406" style="text-decoration:;">劳务作业数据</tspan></tspan></text></g></g><g id="SvgjsG1252" transform="translate(426.5,25)"><path id="SvgjsPath1253" d="M 0 0L 169 0L 169 47L 0 47Z" stroke="none" fill="none"></path><g id="SvgjsG1254"><text id="SvgjsText1255" font-family="微软雅黑" text-anchor="middle" font-size="16px" width="64" fill="#99004d" font-weight="700" align="middle" anchor="middle" family="微软雅黑" size="16px" weight="700" font-style="" y="11.1" transform="rotate(0)"><tspan id="SvgjsTspan1256" dy="20" x="84.5"><tspan id="SvgjsTspan1257" style="text-decoration:;">数据获取</tspan></tspan></text></g></g><g id="SvgjsG1258"><path id="SvgjsPath1259" d="M421 85L520.5 85L520.5 85L620 85" stroke-dasharray="8,5" stroke="#323232" stroke-width="2" fill="none"></path></g><g id="SvgjsG1260" transform="translate(447.5,285.75)"><path id="SvgjsPath1261" d="M 0 4Q 0 0 4 0L 144 0Q 148 0 148 4L 148 31Q 148 35 144 35L 4 35Q 0 35 0 31Z" stroke="#004c99" stroke-width="1" fill-opacity="1" fill="#ffffff"></path><g id="SvgjsG1262"><text id="SvgjsText1263" font-family="微软雅黑" text-anchor="middle" font-size="16px" width="64" fill="#003366" font-weight="400" align="middle" anchor="middle" family="微软雅黑" size="16px" weight="400" font-style="" y="5.1" transform="rotate(0)"><tspan id="SvgjsTspan1264" dy="20" x="74"><tspan id="SvgjsTspan1265" style="text-decoration:;">其他计费数据导入</tspan></tspan></text></g></g><g id="SvgjsG1266" transform="translate(747.5,146.75)"><path id="SvgjsPath1267" d="M 0 4Q 0 0 4 0L 144 0Q 148 0 148 4L 148 31Q 148 35 144 35L 4 35Q 0 35 0 31Z" stroke="#004c99" stroke-width="1" fill-opacity="1" fill="#ffffff"></path><g id="SvgjsG1268"><text id="SvgjsText1269" font-family="微软雅黑" text-anchor="middle" font-size="16px" width="48" fill="#003366" font-weight="400" align="middle" anchor="middle" family="微软雅黑" size="16px" weight="400" font-style="" y="5.1" transform="rotate(0)"><tspan id="SvgjsTspan1270" dy="20" x="74"><tspan id="SvgjsTspan1271" style="text-decoration:;">计费结果</tspan></tspan></text></g></g><g id="SvgjsG1272" transform="translate(747.5,215.75)"><path id="SvgjsPath1273" d="M 0 4Q 0 0 4 0L 144 0Q 148 0 148 4L 148 31Q 148 35 144 35L 4 35Q 0 35 0 31Z" stroke="#004c99" stroke-width="1" fill-opacity="1" fill="#ffffff"></path><g id="SvgjsG1274"><text id="SvgjsText1275" font-family="微软雅黑" text-anchor="middle" font-size="16px" width="96" fill="#003366" font-weight="400" align="middle" anchor="middle" family="微软雅黑" size="16px" weight="400" font-style="" y="5.1" transform="rotate(0)"><tspan id="SvgjsTspan1276" dy="20" x="74"><tspan id="SvgjsTspan1277" style="text-decoration:;">计费报表</tspan></tspan></text></g></g><g id="SvgjsG1278" transform="translate(726.5,28)"><path id="SvgjsPath1279" d="M 0 0L 169 0L 169 47L 0 47Z" stroke="none" fill="none"></path><g id="SvgjsG1280"><text id="SvgjsText1281" font-family="微软雅黑" text-anchor="middle" font-size="16px" width="64" fill="#99004d" font-weight="700" align="middle" anchor="middle" family="微软雅黑" size="16px" weight="700" font-style="" y="11.1" transform="rotate(0)"><tspan id="SvgjsTspan1282" dy="20" x="84.5"><tspan id="SvgjsTspan1283" style="text-decoration:;">结果查询</tspan></tspan></text></g></g><g id="SvgjsG1284"><path id="SvgjsPath1285" d="M721 85L820.5 85L820.5 85L920 85" stroke-dasharray="8,5" stroke="#323232" stroke-width="2" fill="none"></path></g><g id="SvgjsG1286" transform="translate(445,377)"><path id="SvgjsPath1287" d="M 0 0L 160 0L 160 40L 0 40Z" stroke="none" fill="none"></path><g id="SvgjsG1288"><text id="SvgjsText1289" font-family="微软雅黑" text-anchor="middle" font-size="13px" width="0" fill="#323232" font-weight="400" align="middle" anchor="middle" family="微软雅黑" size="13px" weight="400" font-style="" y="10.05" transform="rotate(0)"></text></g></g><g id="SvgjsG1290" transform="translate(25,25)"><path id="SvgjsPath1291" d="M 0 0L 160 0L 160 40L 0 40Z" stroke="none" fill="none"></path><g id="SvgjsG1292"><text id="SvgjsText1293" font-family="微软雅黑" text-anchor="middle" font-size="13px" width="0" fill="#323232" font-weight="400" align="middle" anchor="middle" family="微软雅黑" size="13px" weight="400" font-style="" y="10.05" transform="rotate(0)"></text></g></g><g id="SvgjsG1294" transform="translate(867.5,25)"><path id="SvgjsPath1295" d="M 0 0L 160 0L 160 40L 0 40Z" stroke="none" fill="none"></path><g id="SvgjsG1296"><text id="SvgjsText1297" font-family="微软雅黑" text-anchor="middle" font-size="13px" width="0" fill="#323232" font-weight="400" align="middle" anchor="middle" family="微软雅黑" size="13px" weight="400" font-style="" y="10.05" transform="rotate(0)"></text></g></g></svg>