<svg id="SvgjsSvg1498" width="828" height="558" xmlns="http://www.w3.org/2000/svg" version="1.1" viewBox="0 0 828 558" xmlns:xlink="http://www.w3.org/1999/xlink" xmlns:svgjs="http://svgjs.com/svgjs"><defs id="SvgjsDefs1499"><pattern id="SvgjsPattern1512" x="0" y="0" width="27" height="26" patternUnits="userSpaceOnUse"><image id="SvgjsImage1513" xlink:href="https://cdn.processon.com/5e9d6a517d9c0869da966423?e=1587378273&amp;amp;token=trhI0BY8QfVrIGn9nENop6JAc6l5nZuxhjQ62UfM:eTlUzIopLzgKyrRp42q6Ow5mAcY=" width="27" height="26" preserveAspectRatio="none" crossOrigin="anonymous" x="0" y="0"></image></pattern><pattern id="SvgjsPattern1523" x="0" y="0" width="48" height="42" patternUnits="userSpaceOnUse"><image id="SvgjsImage1524" xlink:href="https://cdn.processon.com/5e9d64f907912948b0cb5b1c?e=1587376905&amp;amp;token=trhI0BY8QfVrIGn9nENop6JAc6l5nZuxhjQ62UfM:fkALp4gZueOP76D6sFcBec5pEh4=" width="48" height="42" preserveAspectRatio="none" crossOrigin="anonymous" x="0" y="0"></image></pattern><pattern id="SvgjsPattern1534" x="0" y="0" width="48" height="42" patternUnits="userSpaceOnUse"><image id="SvgjsImage1535" xlink:href="https://cdn.processon.com/5e9d63881e085346f70ed442?e=1587376536&amp;amp;token=trhI0BY8QfVrIGn9nENop6JAc6l5nZuxhjQ62UfM:swIBAv-ewGsSiES-Z2gQoPOvQik=" width="48" height="42" preserveAspectRatio="none" crossOrigin="anonymous" x="0" y="0"></image></pattern><marker id="SvgjsMarker1544" markerWidth="16" markerHeight="12" refX="16" refY="6" viewBox="0 0 16 12" orient="auto" markerUnits="userSpaceOnUse"><path id="SvgjsPath1545" d="M0,2 L14,6 L0,11 L0,2" fill="#5c5c5c" stroke="#5c5c5c" stroke-width="2"></path></marker><marker id="SvgjsMarker1548" markerWidth="16" markerHeight="12" refX="16" refY="6" viewBox="0 0 16 12" orient="auto" markerUnits="userSpaceOnUse"><path id="SvgjsPath1549" d="M0,2 L14,6 L0,11 L0,2" fill="#5c5c5c" stroke="#5c5c5c" stroke-width="2"></path></marker><pattern id="SvgjsPattern1558" x="0" y="0" width="32" height="28" patternUnits="userSpaceOnUse"><image id="SvgjsImage1559" xlink:href="https://cdn.processon.com/5e9d6a016376897466811c66?e=1587378193&amp;token=trhI0BY8QfVrIGn9nENop6JAc6l5nZuxhjQ62UfM:xbwZ0ynFALKn8KvfBXpfNzjzT7U=" width="32" height="28" preserveAspectRatio="none" crossOrigin="anonymous" x="0" y="0"></image></pattern><pattern id="SvgjsPattern1568" x="0" y="0" width="33" height="30" patternUnits="userSpaceOnUse"><image id="SvgjsImage1569" xlink:href="https://cdn.processon.com/5e9d69a26376897466811aa5?e=1587378098&amp;amp;token=trhI0BY8QfVrIGn9nENop6JAc6l5nZuxhjQ62UfM:Gc0ocWGJ7E0hqfBZL_vPQ60PmSM=" width="33" height="30" preserveAspectRatio="none" crossOrigin="anonymous" x="0" y="0"></image></pattern><pattern id="SvgjsPattern1574" x="0" y="0" width="48" height="42" patternUnits="userSpaceOnUse"><image id="SvgjsImage1575" xlink:href="https://cdn.processon.com/5e9d660e7d9c0869da964e62?e=1587377182&amp;amp;token=trhI0BY8QfVrIGn9nENop6JAc6l5nZuxhjQ62UfM:Dge6_rTTPW1-4r6bkRu31sKF_Cs=" width="48" height="42" preserveAspectRatio="none" crossOrigin="anonymous" x="0" y="0"></image></pattern><pattern id="SvgjsPattern1624" x="0" y="0" width="27" height="26" patternUnits="userSpaceOnUse"><image id="SvgjsImage1625" xlink:href="https://cdn.processon.com/5e9d662a7d9c0869da964f03?e=1587377210&amp;amp;token=trhI0BY8QfVrIGn9nENop6JAc6l5nZuxhjQ62UfM:LectdftxsLAVtMXmzRqf5aBLxds=" width="27" height="26" preserveAspectRatio="none" crossOrigin="anonymous" x="0" y="0"></image></pattern><pattern id="SvgjsPattern1652" x="0" y="0" width="28" height="28" patternUnits="userSpaceOnUse"><image id="SvgjsImage1653" xlink:href="https://cdn.processon.com/5e9d690d1e085346f70ef0e7?e=1587377949&amp;amp;token=trhI0BY8QfVrIGn9nENop6JAc6l5nZuxhjQ62UfM:ikjIxcvrsLGcWrB41ZArXIlJpRQ=" width="28" height="28" preserveAspectRatio="none" crossOrigin="anonymous" x="0" y="0"></image></pattern></defs><g id="SvgjsG1500" transform="translate(361.5,81)"><path id="SvgjsPath1501" d="M 0 55C 0 -18.333333333333332 120 -18.333333333333332 120 55C 120 128.33333333333334 0 128.33333333333334 0 55Z" stroke="#ffffff" stroke-width="1" fill-opacity="1" fill="#cce5ff"></path><g id="SvgjsG1502"><text id="SvgjsText1503" font-family="微软雅黑" text-anchor="middle" font-size="17px" width="0" fill="#323232" font-weight="700" align="middle" anchor="middle" family="微软雅黑" size="17px" weight="700" font-style="" y="41.95" transform="rotate(0)"></text></g></g><g id="SvgjsG1504" transform="translate(637.5,455.7447814941406)"><path id="SvgjsPath1505" d="M 0 4Q 0 0 4 0L 156 0Q 160 0 160 4L 160 36Q 160 40 156 40L 4 40Q 0 40 0 36Z" stroke="#ffffff" stroke-width="1" fill-opacity="1" fill="#ffffcc"></path><g id="SvgjsG1506"><text id="SvgjsText1507" font-family="微软雅黑" text-anchor="middle" font-size="16px" width="112" fill="#003366" font-weight="400" align="middle" anchor="middle" family="微软雅黑" size="16px" weight="400" font-style="" y="7.6" transform="rotate(0)"><tspan id="SvgjsTspan1508" dy="20" x="80"><tspan id="SvgjsTspan1509" style="text-decoration:;">          设置       </tspan></tspan></text></g></g><g id="SvgjsG1510" transform="translate(668.25,463.7447814941406)"><path id="SvgjsPath1511" d="M 0 0L 27 0L 27 26L 0 26Z" stroke="none" fill="url(#SvgjsPattern1512)"></path></g><g id="SvgjsG1514" transform="translate(25,73)"><path id="SvgjsPath1515" d="M 0 0L 228.5 0L 228.5 126L 0 126Z" stroke="#323232" stroke-width="2" fill-opacity="0.95" fill="#ffffff"></path><g id="SvgjsG1516"><text id="SvgjsText1517" font-family="微软雅黑" text-anchor="middle" font-size="26px" width="140" fill="#323232" font-weight="400" align="middle" anchor="middle" family="微软雅黑" size="26px" weight="400" font-style="" y="42.6" transform="rotate(0)"><tspan id="SvgjsTspan1518" dy="32" x="114.5"><tspan id="SvgjsTspan1519" style="text-decoration:;">        </tspan><tspan id="SvgjsTspan1520" style="text-decoration:;font-weight: bold;">收款单</tspan></tspan></text></g></g><g id="SvgjsG1521" transform="translate(57.00000000000006,118)"><path id="SvgjsPath1522" d="M 0 0L 48 0L 48 42L 0 42Z" stroke="none" fill="url(#SvgjsPattern1523)"></path></g><g id="SvgjsG1525" transform="translate(575,73)"><path id="SvgjsPath1526" d="M 0 0L 228.5 0L 228.5 126L 0 126Z" stroke="#323232" stroke-width="2" fill-opacity="1" fill="#ffffff"></path><g id="SvgjsG1527"><text id="SvgjsText1528" font-family="微软雅黑" text-anchor="middle" font-size="26px" width="140" fill="#323232" font-weight="700" align="middle" anchor="middle" family="微软雅黑" size="26px" weight="700" font-style="" y="42.6" transform="rotate(0)"><tspan id="SvgjsTspan1529" dy="32" x="114.5"><tspan id="SvgjsTspan1530" style="text-decoration:;">        付</tspan><tspan id="SvgjsTspan1531" style="text-decoration:;font-weight: bold;">款单</tspan></tspan></text></g></g><g id="SvgjsG1532" transform="translate(607,115)"><path id="SvgjsPath1533" d="M 0 0L 48 0L 48 42L 0 42Z" stroke="none" fill="url(#SvgjsPattern1534)"></path></g><g id="SvgjsG1536" transform="translate(25,279)"><path id="SvgjsPath1537" d="M 0 0L 775 0L 775 141L 0 141Z" stroke="#323232" stroke-width="1" fill-opacity="1" fill="#cce5ff"></path><g id="SvgjsG1538"><text id="SvgjsText1539" font-family="微软雅黑" text-anchor="middle" font-size="13px" width="0" fill="#323232" font-weight="400" align="middle" anchor="middle" family="微软雅黑" size="13px" weight="400" font-style="" y="60.55" transform="rotate(0)"></text></g></g><g id="SvgjsG1540"><path id="SvgjsPath1541" d="M220.5 279L220.5 239L220.5 239L220.5 199" stroke="#737373" stroke-width="1" fill="none"></path></g><g id="SvgjsG1542"><path id="SvgjsPath1543" d="M253.5 136L293.5 136L293.5 136L333.5 136" stroke="#5c5c5c" stroke-width="2" fill="none" marker-end="url(#SvgjsMarker1544)"></path></g><g id="SvgjsG1546"><path id="SvgjsPath1547" d="M502.5 136L538.75 136L538.75 136L575 136" stroke="#5c5c5c" stroke-width="2" fill="none" marker-end="url(#SvgjsMarker1548)"></path></g><g id="SvgjsG1550" transform="translate(347.5,455.7447814941406)"><path id="SvgjsPath1551" d="M 0 4Q 0 0 4 0L 156 0Q 160 0 160 4L 160 36Q 160 40 156 40L 4 40Q 0 40 0 36Z" stroke="#ffffff" stroke-width="1" fill-opacity="1" fill="#cce5ff"></path><g id="SvgjsG1552"><text id="SvgjsText1553" font-family="微软雅黑" text-anchor="middle" font-size="16px" width="107" fill="#003366" font-weight="400" align="middle" anchor="middle" family="微软雅黑" size="16px" weight="400" font-style="" y="7.6" transform="rotate(0)"><tspan id="SvgjsTspan1554" dy="20" x="80"><tspan id="SvgjsTspan1555" style="text-decoration:;">         资金流水</tspan></tspan></text></g></g><g id="SvgjsG1556" transform="translate(367.11209439528034,461.7447814941406)"><path id="SvgjsPath1557" d="M 0 0L 32 0L 32 28L 0 28Z" stroke="none" fill="url(#SvgjsPattern1558)"></path></g><g id="SvgjsG1560" transform="translate(27.5,455.7447814941406)"><path id="SvgjsPath1561" d="M 0 4Q 0 0 4 0L 156 0Q 160 0 160 4L 160 36Q 160 40 156 40L 4 40Q 0 40 0 36Z" stroke="#ffffff" stroke-width="1" fill-opacity="1" fill="#cce5ff"></path><g id="SvgjsG1562"><text id="SvgjsText1563" font-family="微软雅黑" text-anchor="middle" font-size="16px" width="107" fill="#003366" font-weight="400" align="middle" anchor="middle" family="微软雅黑" size="16px" weight="400" font-style="" y="7.6" transform="rotate(0)"><tspan id="SvgjsTspan1564" dy="20" x="80"><tspan id="SvgjsTspan1565" style="text-decoration:;">         开票审批</tspan></tspan></text></g></g><g id="SvgjsG1566" transform="translate(43.13790560471989,460.7447814941406)"><path id="SvgjsPath1567" d="M 0 0L 33 0L 33 30L 0 30Z" stroke="none" fill="url(#SvgjsPattern1568)"></path></g><g id="SvgjsG1570"><path id="SvgjsPath1571" d="M645.5 279L645.5 199" stroke="#737373" stroke-width="1" fill="none"></path></g><g id="SvgjsG1572" transform="translate(396.625,94.8125)"><path id="SvgjsPath1573" d="M 0 0L 48 0L 48 42L 0 42Z" stroke="none" fill="url(#SvgjsPattern1574)"></path></g><g id="SvgjsG1576" transform="translate(347.5,493)"><path id="SvgjsPath1577" d="M 0 0L 160 0L 160 40L 0 40Z" stroke="none" fill="none"></path><g id="SvgjsG1578"><text id="SvgjsText1579" font-family="微软雅黑" text-anchor="middle" font-size="13px" width="0" fill="#323232" font-weight="400" align="middle" anchor="middle" family="微软雅黑" size="13px" weight="400" font-style="" y="10.05" transform="rotate(0)"></text></g></g><g id="SvgjsG1580" transform="translate(367.5,81)"><path id="SvgjsPath1581" d="M 0 0L 120 0L 120 110L 0 110Z" stroke="none" fill="none"></path><g id="SvgjsG1582"><text id="SvgjsText1583" font-family="微软雅黑" text-anchor="middle" font-size="17px" width="118" fill="#323232" font-weight="400" align="middle" anchor="middle" family="微软雅黑" size="17px" weight="400" font-style="" y="-0.04999999999999982" transform="rotate(0)"><tspan id="SvgjsTspan1584" dy="21" x="60"><tspan id="SvgjsTspan1585" style="text-decoration:;font-weight: bold;">                        </tspan></tspan><tspan id="SvgjsTspan1586" dy="21" x="60"><tspan id="SvgjsTspan1587" style="text-decoration:;font-weight: bold;">                        </tspan></tspan><tspan id="SvgjsTspan1588" dy="21" x="60"><tspan id="SvgjsTspan1589" style="text-decoration:;font-weight: bold;">                        </tspan></tspan><tspan id="SvgjsTspan1590" dy="21" x="60"><tspan id="SvgjsTspan1591" style="text-decoration:;font-weight: bold;">     公司账户      </tspan></tspan><tspan id="SvgjsTspan1592" dy="21" x="60"><tspan id="SvgjsTspan1593" style="text-decoration:;font-weight: bold;">                  </tspan></tspan></text></g></g><g id="SvgjsG1594" transform="translate(347.5,25)"><path id="SvgjsPath1595" d="M 0 0L 160 0L 160 40L 0 40Z" stroke="none" fill="none"></path><g id="SvgjsG1596"><text id="SvgjsText1597" font-family="微软雅黑" text-anchor="middle" font-size="13px" width="0" fill="#323232" font-weight="400" align="middle" anchor="middle" family="微软雅黑" size="13px" weight="400" font-style="" y="10.05" transform="rotate(0)"></text></g></g><g id="SvgjsG1598" transform="translate(27.5,280)"><path id="SvgjsPath1599" d="M 0 0L 772 0L 772 69L 0 69Z" stroke="#cce5ff" stroke-width="1" fill-opacity="1" fill="#cce5ff"></path><g id="SvgjsG1600"><text id="SvgjsText1601" font-family="微软雅黑" text-anchor="middle" font-size="16px" width="685" fill="#323232" font-weight="400" align="middle" anchor="middle" family="微软雅黑" size="16px" weight="400" font-style="" y="22.1" transform="rotate(0)"><tspan id="SvgjsTspan1602" dy="20" x="386"><tspan id="SvgjsTspan1603" style="text-decoration:;font-weight: bold;">         账户                                                                                                                                 </tspan></tspan></text></g></g><g id="SvgjsG1604" transform="translate(184.99999999999994,296)"><path id="SvgjsPath1605" d="M 0 0L 84 0L 84 35L 0 35Z" stroke="#ffffff" stroke-width="2" fill-opacity="1" fill="#ffffff"></path><g id="SvgjsG1606"><text id="SvgjsText1607" font-family="微软雅黑" text-anchor="middle" font-size="14px" width="56" fill="#171717" font-weight="700" align="middle" anchor="middle" family="微软雅黑" size="14px" weight="700" font-style="" y="6.4" transform="rotate(0)"><tspan id="SvgjsTspan1608" dy="17" x="42"><tspan id="SvgjsTspan1609" style="text-decoration:;">客户账户</tspan></tspan></text></g></g><g id="SvgjsG1610" transform="translate(395,296)"><path id="SvgjsPath1611" d="M 0 0L 84 0L 84 35L 0 35Z" stroke="#ffffff" stroke-width="2" fill-opacity="1" fill="#ffffff"></path><g id="SvgjsG1612"><text id="SvgjsText1613" font-family="微软雅黑" text-anchor="middle" font-size="14px" width="56" fill="#171717" font-weight="700" align="middle" anchor="middle" family="微软雅黑" size="14px" weight="700" font-style="" y="6.4" transform="rotate(0)"><tspan id="SvgjsTspan1614" dy="17" x="42"><tspan id="SvgjsTspan1615" style="text-decoration:;">员工账户</tspan></tspan></text></g></g><g id="SvgjsG1616" transform="translate(605,296)"><path id="SvgjsPath1617" d="M 0 0L 96 0L 96 35L 0 35Z" stroke="#ffffff" stroke-width="2" fill-opacity="1" fill="#ffffff"></path><g id="SvgjsG1618"><text id="SvgjsText1619" font-family="微软雅黑" text-anchor="middle" font-size="14px" width="70" fill="#171717" font-weight="700" align="middle" anchor="middle" family="微软雅黑" size="14px" weight="700" font-style="" y="6.4" transform="rotate(0)"><tspan id="SvgjsTspan1620" dy="17" x="48"><tspan id="SvgjsTspan1621" style="text-decoration:;">承运商账户</tspan></tspan></text></g></g><g id="SvgjsG1622" transform="translate(44,300.5)"><path id="SvgjsPath1623" d="M 0 0L 27 0L 27 26L 0 26Z" stroke="none" fill="url(#SvgjsPattern1624)"></path></g><g id="SvgjsG1626" transform="translate(27.5,350)"><path id="SvgjsPath1627" d="M 0 0L 772 0L 772 69L 0 69Z" stroke="#cce5ff" stroke-width="1" fill-opacity="1" fill="#cce5ff"></path><g id="SvgjsG1628"><text id="SvgjsText1629" font-family="微软雅黑" text-anchor="middle" font-size="16px" width="687" fill="#323232" font-weight="400" align="middle" anchor="middle" family="微软雅黑" size="16px" weight="400" font-style="" y="22.1" transform="rotate(0)"><tspan id="SvgjsTspan1630" dy="20" x="386"><tspan id="SvgjsTspan1631" style="text-decoration:;font-weight: bold;">         往来方                                                                                                                              </tspan></tspan></text></g></g><g id="SvgjsG1632" transform="translate(184.99999999999994,366)"><path id="SvgjsPath1633" d="M 0 0L 84 0L 84 35L 0 35Z" stroke="#ffffff" stroke-width="2" fill-opacity="1" fill="#ffffff"></path><g id="SvgjsG1634"><text id="SvgjsText1635" font-family="微软雅黑" text-anchor="middle" font-size="14px" width="28" fill="#171717" font-weight="700" align="middle" anchor="middle" family="微软雅黑" size="14px" weight="700" font-style="" y="6.4" transform="rotate(0)"><tspan id="SvgjsTspan1636" dy="17" x="42"><tspan id="SvgjsTspan1637" style="text-decoration:;">客户</tspan></tspan></text></g></g><g id="SvgjsG1638" transform="translate(395,366)"><path id="SvgjsPath1639" d="M 0 0L 84 0L 84 35L 0 35Z" stroke="#ffffff" stroke-width="2" fill-opacity="1" fill="#ffffff"></path><g id="SvgjsG1640"><text id="SvgjsText1641" font-family="微软雅黑" text-anchor="middle" font-size="14px" width="28" fill="#171717" font-weight="700" align="middle" anchor="middle" family="微软雅黑" size="14px" weight="700" font-style="" y="6.4" transform="rotate(0)"><tspan id="SvgjsTspan1642" dy="17" x="42"><tspan id="SvgjsTspan1643" style="text-decoration:;">员工</tspan></tspan></text></g></g><g id="SvgjsG1644" transform="translate(605,366)"><path id="SvgjsPath1645" d="M 0 0L 96 0L 96 35L 0 35Z" stroke="#ffffff" stroke-width="2" fill-opacity="1" fill="#ffffff"></path><g id="SvgjsG1646"><text id="SvgjsText1647" font-family="微软雅黑" text-anchor="middle" font-size="14px" width="42" fill="#171717" font-weight="700" align="middle" anchor="middle" family="微软雅黑" size="14px" weight="700" font-style="" y="6.4" transform="rotate(0)"><tspan id="SvgjsTspan1648" dy="17" x="48"><tspan id="SvgjsTspan1649" style="text-decoration:;">承运商</tspan></tspan></text></g></g><g id="SvgjsG1650" transform="translate(43.5,373)"><path id="SvgjsPath1651" d="M 0 0L 28 0L 28 28L 0 28Z" stroke="none" fill="url(#SvgjsPattern1652)"></path></g><g id="SvgjsG1654"><path id="SvgjsPath1655" d="M27.5 351L800.5 351" stroke-dasharray="8,5" stroke="#323232" stroke-width="1" fill="none"></path></g><g id="SvgjsG1656"><path id="SvgjsPath1657" d="M226.99999999999994 366L226.99999999999994 348.5L226.99999999999994 348.5L226.99999999999994 331" stroke-dasharray="8,5" stroke="#454545" stroke-width="1" fill="none"></path></g><g id="SvgjsG1658"><path id="SvgjsPath1659" d="M437 366L437 348.5L437 348.5L437 331" stroke-dasharray="8,5" stroke="#454545" stroke-width="1" fill="none"></path></g><g id="SvgjsG1660"><path id="SvgjsPath1661" d="M654 366L654 348.5L654 348.5L654 331" stroke-dasharray="8,5" stroke="#454545" stroke-width="1" fill="none"></path></g></svg>